#!OML:ASF E:\emotionWalksFemale\Project 1\Capture day 1\Session 1\Female1.ASF
:FULLY-SPECIFIED
:DEGREES
3041
root 7.70991 15.209 40.939 -357.807 -183.226 -367.194
lowerback 5.28244 1.16868 6.70822
upperback -5.39373 2.18024 -3.04682
thorax -8.35817 0.635251 -7.32835
lowerneck -4.25232 1.59292 -5.94927
upperneck 17.1524 1.94405 -0.367472
head 5.83172 0.159192 0.951417
rclavicle 1.54058e-014 1.43125e-014
rhumerus -46.1409 17.8156 -94.9327
rradius 31.526
rwrist 19.7958
rhand 0.141898 -55.8429
rfingers 7.12502
rthumb 25.7263 995.876
lclavicle 1.54058e-014 1.43125e-014
lhumerus -42.6202 -6.17986 85.7551
lradius 43.4299
lwrist -7.52372
lhand -5.03533 -36.5859
lfingers 7.12502
lthumb 20.7595 -7.67638
rfemur -13.5952 -1.78295 12.1577
rtibia 37.3376
rfoot -37.4992 -29.5691
rtoes 24.7263
lfemur -6.27577 -13.1776 -33.1491
ltibia 20.2059
lfoot -18.5156 9.7983
ltoes -31.9455
3042
root 7.70022 15.2074 40.9459 -357.844 -183.324 -367.101
lowerback 5.3825 1.09411 6.83204
upperback -5.42317 2.09898 -3.02519
thorax -8.46264 0.581571 -7.37328
lowerneck -4.41962 1.74811 -5.87832
upperneck 17.4397 2.13703 -0.285608
head 5.94445 0.246678 0.979267
rclavicle -1.63003e-014 -1.03368e-014
rhumerus -46.2154 17.3568 -94.7268
rradius 31.4514
rwrist 19.8831
rhand -0.256539 -55.2187
rfingers 7.12502
rthumb 25.3446 996.446
lclavicle -1.63003e-014 -1.03368e-014
lhumerus -42.6849 -6.23253 85.9018
lradius 42.8947
lwrist -8.63313
lhand -6.48684 -36.3744
lfingers 7.12502
lthumb 19.3643 -7.31856
rfemur -13.6301 -1.69147 12.2387
rtibia 37.3455
rfoot -37.4827 -29.771
rtoes 24.2633
lfemur -6.35328 -13.1009 -33.0754
ltibia 20.3592
lfoot -18.561 9.82229
ltoes -31.914
3043
root 7.69194 15.2119 40.9763 -357.686 -183.456 -366.715
lowerback 5.72648 1.02784 7.02315
upperback -5.56749 2.06937 -2.82096
thorax -8.83327 0.538436 -7.27922
lowerneck -4.57239 1.82964 -5.73433
upperneck 17.6706 2.25868 -0.458593
head 6.04433 0.28646 0.91
rclavicle 8.34896e-015 1.35174e-014
rhumerus -46.3293 17.264 -94.5088
rradius 31.4578
rwrist 19.6216
rhand -0.458419 -54.7118
rfingers 7.12502
rthumb 25.1512 996.925
lclavicle 8.34896e-015 1.35174e-014
lhumerus -42.5967 -6.33883 86.1712
lradius 42.217
lwrist -9.06773
lhand -7.11478 -36.3253
lfingers 7.12502
lthumb 18.7604 -7.21001
rfemur -13.9811 -1.24223 12.7195
rtibia 37.2912
rfoot -37.5287 -30.0916
rtoes 24.6179
lfemur -6.80597 -13.2094 -32.5834
ltibia 20.5644
lfoot -18.5724 9.7822
ltoes -30.6313
3044
root 7.68194 15.2136 40.9767 -357.546 -183.495 -366.542
lowerback 5.52026 0.968753 7.07174
upperback -5.60009 1.99284 -2.70659
thorax -8.7635 0.506197 -7.16464
lowerneck -4.62785 1.89382 -5.45963
upperneck 17.8017 2.35417 -0.7382
head 6.09995 0.318506 0.782637
rclavicle 2.18663e-015 -1.43125e-014
rhumerus -46.4116 17.0519 -94.2842
rradius 31.5551
rwrist 19.4443
rhand -0.270985 -54.8565
rfingers 7.12502
rthumb 25.3308 996.806
lclavicle 2.18663e-015 -1.43125e-014
lhumerus -42.5067 -6.47242 86.3313
lradius 41.591
lwrist -9.26789
lhand -7.13384 -36.2858
lfingers 7.12502
lthumb 18.7421 -7.16875
rfemur -14.1128 -1.20989 12.8779
rtibia 37.2242
rfoot -37.3642 -30.0148
rtoes 24.6161
lfemur -7.05045 -13.2854 -32.4037
ltibia 20.7409
lfoot -18.7467 9.70844
ltoes -29.3618
3045
root 7.67215 15.2143 40.9752 -357.506 -183.583 -366.488
lowerback 5.32613 0.932355 7.02933
upperback -5.5963 1.93286 -2.63189
thorax -8.65757 0.488531 -7.04269
lowerneck -4.6016 0.692154 -5.13212
upperneck 17.9412 2.80004 -1.27734
head 6.16774 1.36334 0.68084
rclavicle -5.06901e-015 -9.54166e-015
rhumerus -46.5304 16.615 -94.0054
rradius 31.6621
rwrist 19.5327
rhand -0.119758 -55.2347
rfingers 7.12502
rthumb 25.4757 996.448
lclavicle -5.06901e-015 -9.54166e-015
lhumerus -42.4171 -6.43428 86.3571
lradius 41.0076
lwrist -9.69588
lhand -7.12362 -36.6932
lfingers 7.12502
lthumb 18.7519 -7.57704
rfemur -14.1497 -1.17095 12.8946
rtibia 37.1933
rfoot -37.2663 -29.9964
rtoes 24.5377
lfemur -7.10978 -13.5447 -32.4004
ltibia 20.8245
lfoot -18.7179 10.2898
ltoes -30.981
3046
root 7.6635 15.2098 40.9724 -357.605 -183.669 -366.547
lowerback 5.19287 0.917583 6.91425
upperback -5.5304 1.88844 -2.62126
thorax -8.51535 0.482202 -6.9513
lowerneck -4.53862 0.780338 -4.96611
upperneck 18.0802 2.94366 -1.36976
head 6.20151 1.44328 0.63518
rclavicle 8.94531e-016 -2.14687e-014
rhumerus -46.3379 16.3952 -93.7967
rradius 31.476
rwrist 19.4474
rhand -0.0459216 -55.1788
rfingers 7.12502
rthumb 25.5464 996.514
lclavicle 8.94531e-016 -2.14687e-014
lhumerus -42.4376 -6.57371 86.413
lradius 40.5926
lwrist -10.0514
lhand -6.94504 -37.0208
lfingers 7.12502
lthumb 18.9237 -7.92133
rfemur -14.0419 -1.06104 12.784
rtibia 37.1928
rfoot -37.6066 -30.2663
rtoes 23.2111
lfemur -6.94679 -13.8272 -32.5676
ltibia 20.78
lfoot -18.5652 10.9013
ltoes -32.5164
